<mxfile host="app.diagrams.net" agent="Mozilla/5.0 (Windows NT 10.0; Win64; x64) AppleWebKit/537.36 (KHTML, like Gecko) Chrome/133.0.0.0 Safari/537.36 Edg/133.0.0.0" version="26.1.0">
  <diagram name="Page-1" id="ZBkei70rkl07zeI-5gVD">
    <mxGraphModel dx="1139" dy="574" grid="1" gridSize="10" guides="1" tooltips="1" connect="1" arrows="1" fold="1" page="1" pageScale="1" pageWidth="850" pageHeight="1100" math="0" shadow="0">
      <root>
        <mxCell id="0" />
        <mxCell id="1" parent="0" />
        <mxCell id="Yr-TslPZh-1pWM0lGphJ-1" value="" style="edgeStyle=orthogonalEdgeStyle;rounded=0;orthogonalLoop=1;jettySize=auto;html=1;" edge="1" parent="1" source="Yr-TslPZh-1pWM0lGphJ-2" target="Yr-TslPZh-1pWM0lGphJ-4">
          <mxGeometry relative="1" as="geometry" />
        </mxCell>
        <mxCell id="Yr-TslPZh-1pWM0lGphJ-2" value="Entry" style="ellipse;whiteSpace=wrap;html=1;fillColor=#d5e8d4;strokeColor=light-dark(#000000,#446E2C);strokeWidth=0.5;" vertex="1" parent="1">
          <mxGeometry x="330" y="100" width="60" height="30" as="geometry" />
        </mxCell>
        <mxCell id="Yr-TslPZh-1pWM0lGphJ-3" value="" style="edgeStyle=orthogonalEdgeStyle;rounded=0;orthogonalLoop=1;jettySize=auto;html=1;" edge="1" parent="1" source="Yr-TslPZh-1pWM0lGphJ-4" target="Yr-TslPZh-1pWM0lGphJ-6">
          <mxGeometry relative="1" as="geometry" />
        </mxCell>
        <mxCell id="Yr-TslPZh-1pWM0lGphJ-4" value="(0) Sum(int[] a, int n)" style="rounded=0;whiteSpace=wrap;html=1;fillColor=#dae8fc;strokeColor=light-dark(#000000,#446E2C);strokeWidth=0.5;" vertex="1" parent="1">
          <mxGeometry x="312.5" y="160" width="95" height="50" as="geometry" />
        </mxCell>
        <mxCell id="Yr-TslPZh-1pWM0lGphJ-5" value="" style="edgeStyle=orthogonalEdgeStyle;rounded=0;orthogonalLoop=1;jettySize=auto;html=1;" edge="1" parent="1" source="Yr-TslPZh-1pWM0lGphJ-6" target="Yr-TslPZh-1pWM0lGphJ-10">
          <mxGeometry relative="1" as="geometry" />
        </mxCell>
        <mxCell id="Yr-TslPZh-1pWM0lGphJ-6" value="(1) int i = 0, total = 0" style="rounded=0;whiteSpace=wrap;html=1;fillColor=#dae8fc;strokeColor=light-dark(#000000,#446E2C);strokeWidth=0.5;" vertex="1" parent="1">
          <mxGeometry x="312.5" y="250" width="95" height="50" as="geometry" />
        </mxCell>
        <mxCell id="Yr-TslPZh-1pWM0lGphJ-8" value="" style="edgeStyle=orthogonalEdgeStyle;rounded=0;orthogonalLoop=1;jettySize=auto;html=1;" edge="1" parent="1" source="Yr-TslPZh-1pWM0lGphJ-10">
          <mxGeometry relative="1" as="geometry">
            <mxPoint x="450" y="380" as="targetPoint" />
          </mxGeometry>
        </mxCell>
        <mxCell id="Yr-TslPZh-1pWM0lGphJ-50" value="" style="edgeStyle=orthogonalEdgeStyle;rounded=0;orthogonalLoop=1;jettySize=auto;html=1;" edge="1" parent="1" source="Yr-TslPZh-1pWM0lGphJ-10" target="Yr-TslPZh-1pWM0lGphJ-47">
          <mxGeometry relative="1" as="geometry" />
        </mxCell>
        <mxCell id="Yr-TslPZh-1pWM0lGphJ-10" value="&lt;div&gt;(2) i &amp;lt; n&lt;/div&gt;" style="rhombus;whiteSpace=wrap;html=1;fillColor=#fff2cc;strokeColor=light-dark(#000000,#446E2C);strokeWidth=0.5;" vertex="1" parent="1">
          <mxGeometry x="310" y="340" width="100" height="80" as="geometry" />
        </mxCell>
        <mxCell id="Yr-TslPZh-1pWM0lGphJ-31" value="" style="edgeStyle=orthogonalEdgeStyle;rounded=0;orthogonalLoop=1;jettySize=auto;html=1;" edge="1" parent="1" target="Yr-TslPZh-1pWM0lGphJ-33">
          <mxGeometry relative="1" as="geometry">
            <mxPoint x="545" y="380" as="sourcePoint" />
          </mxGeometry>
        </mxCell>
        <mxCell id="Yr-TslPZh-1pWM0lGphJ-33" value="end" style="ellipse;whiteSpace=wrap;html=1;fillColor=#d5e8d4;strokeColor=light-dark(#000000,#446E2C);strokeWidth=0.5;" vertex="1" parent="1">
          <mxGeometry x="570" y="365" width="60" height="30" as="geometry" />
        </mxCell>
        <mxCell id="Yr-TslPZh-1pWM0lGphJ-37" value="F" style="text;html=1;align=center;verticalAlign=middle;whiteSpace=wrap;rounded=0;" vertex="1" parent="1">
          <mxGeometry x="410" y="355" width="30" height="20" as="geometry" />
        </mxCell>
        <mxCell id="Yr-TslPZh-1pWM0lGphJ-46" value="T" style="text;html=1;align=center;verticalAlign=middle;whiteSpace=wrap;rounded=0;" vertex="1" parent="1">
          <mxGeometry x="330" y="430" width="30" height="20" as="geometry" />
        </mxCell>
        <mxCell id="Yr-TslPZh-1pWM0lGphJ-49" value="" style="edgeStyle=orthogonalEdgeStyle;rounded=0;orthogonalLoop=1;jettySize=auto;html=1;" edge="1" parent="1" source="Yr-TslPZh-1pWM0lGphJ-47" target="Yr-TslPZh-1pWM0lGphJ-48">
          <mxGeometry relative="1" as="geometry" />
        </mxCell>
        <mxCell id="Yr-TslPZh-1pWM0lGphJ-47" value="(3) total = total + a[i]" style="rounded=0;whiteSpace=wrap;html=1;fillColor=#dae8fc;strokeColor=light-dark(#000000,#446E2C);strokeWidth=0.5;" vertex="1" parent="1">
          <mxGeometry x="312.5" y="460" width="95" height="50" as="geometry" />
        </mxCell>
        <mxCell id="Yr-TslPZh-1pWM0lGphJ-52" style="edgeStyle=orthogonalEdgeStyle;rounded=0;orthogonalLoop=1;jettySize=auto;html=1;entryX=0;entryY=0.5;entryDx=0;entryDy=0;" edge="1" parent="1">
          <mxGeometry relative="1" as="geometry">
            <mxPoint x="227.48000000000002" y="460" as="sourcePoint" />
            <mxPoint x="310" y="380" as="targetPoint" />
            <Array as="points">
              <mxPoint x="227.48000000000002" y="380" />
            </Array>
          </mxGeometry>
        </mxCell>
        <mxCell id="Yr-TslPZh-1pWM0lGphJ-48" value="(4) i++" style="rounded=0;whiteSpace=wrap;html=1;fillColor=#dae8fc;strokeColor=light-dark(#000000,#446E2C);strokeWidth=0.5;" vertex="1" parent="1">
          <mxGeometry x="180" y="460" width="95" height="50" as="geometry" />
        </mxCell>
        <mxCell id="Yr-TslPZh-1pWM0lGphJ-51" value="(5) return total" style="rounded=0;whiteSpace=wrap;html=1;fillColor=#dae8fc;strokeColor=light-dark(#000000,#446E2C);strokeWidth=0.5;" vertex="1" parent="1">
          <mxGeometry x="450" y="355" width="95" height="50" as="geometry" />
        </mxCell>
      </root>
    </mxGraphModel>
  </diagram>
</mxfile>
